HIERARCHY
ROOT Hips
{
  OFFSET 48.9885 94.0984 -10.8104
  CHANNELS 6 Xposition Yposition Zposition Zrotation Xrotation Yrotation
  JOINT spine
  {
    OFFSET 0 7.80059 0.448573
    CHANNELS 3 Zrotation Xrotation Yrotation
    JOINT spine1
    {
      OFFSET 0 10.1364 0
      CHANNELS 3 Zrotation Xrotation Yrotation
      JOINT spine2
      {
        OFFSET 0 9.71251 0
        CHANNELS 3 Zrotation Xrotation Yrotation
        JOINT Neck
        {
          OFFSET 0 24.9361 1.18887
          CHANNELS 3 Zrotation Xrotation Yrotation
          JOINT Head
          {
            OFFSET 0 7.53384 0
            CHANNELS 3 Zrotation Xrotation Yrotation
            End Site
            {
              OFFSET 0 18.2361 -6.01402
            }
          }
        }
        JOINT RightShoulder
        {
          OFFSET -4.08965 10.4888 -0.569457
          CHANNELS 3 Zrotation Xrotation Yrotation
          JOINT RightArm
          {
            OFFSET 0 13.757 0
            CHANNELS 3 Zrotation Xrotation Yrotation
            JOINT RightArmRoll
            {
              OFFSET 0 6.94478 0
              CHANNELS 3 Zrotation Xrotation Yrotation
              JOINT RightForeArm
              {
                OFFSET 0 20.2277 0
                CHANNELS 3 Zrotation Xrotation Yrotation
                JOINT RightForeArmRoll
                {
                  OFFSET 0 7.79312 0
                  CHANNELS 3 Zrotation Xrotation Yrotation
                  JOINT RightHand
                  {
                    OFFSET 0 15.6391 0
                    CHANNELS 3 Zrotation Xrotation Yrotation
                    End Site
                    {
                      OFFSET 0 0 0
                    }
                  }
                }
              }
            }
          }
        }
        JOINT LeftShoulder
        {
          OFFSET 4.08965 10.4888 -0.569457
          CHANNELS 3 Zrotation Xrotation Yrotation
          JOINT LeftArm
          {
            OFFSET 0 13.757 0
            CHANNELS 3 Zrotation Xrotation Yrotation
            JOINT LeftArmRoll
            {
              OFFSET 0 6.94478 0
              CHANNELS 3 Zrotation Xrotation Yrotation
              JOINT LeftForeArm
              {
                OFFSET 0 20.2277 0
                CHANNELS 3 Zrotation Xrotation Yrotation
                JOINT LeftForeArmRoll
                {
                  OFFSET 0 7.79312 0
                  CHANNELS 3 Zrotation Xrotation Yrotation
                  JOINT LeftHand
                  {
                    OFFSET 0 15.6391 0
                    CHANNELS 3 Zrotation Xrotation Yrotation
                    End Site
                    {
                      OFFSET 0 0 0
                    }
                  }
                }
              }
            }
          }
        }
      }
    }
  }
  JOINT RightUpLeg
  {
    OFFSET -6.91416 -1.26788 -1.06358
    CHANNELS 3 Zrotation Xrotation Yrotation
    JOINT RightUpLegRoll
    {
      OFFSET 0 18.3378 0
      CHANNELS 3 Zrotation Xrotation Yrotation
      JOINT RightLeg
      {
        OFFSET 0 -22.7085 0
        CHANNELS 3 Zrotation Xrotation Yrotation
        JOINT RightLegRoll
        {
          OFFSET 0 22.7828 0
          CHANNELS 3 Zrotation Xrotation Yrotation
          JOINT RightFoot
          {
            OFFSET 0 18.9629 0
            CHANNELS 3 Zrotation Xrotation Yrotation
            JOINT RightToeBase
            {
              OFFSET 0 15.852 0
              CHANNELS 3 Zrotation Xrotation Yrotation
              End Site
              {
                OFFSET 0.00671906 7.67701 -0.884893
              }
            }
          }
        }
      }
    }
  }
  JOINT LeftUpLeg
  {
    OFFSET 6.91416 -1.26788 -1.06358
    CHANNELS 3 Zrotation Xrotation Yrotation
    JOINT LeftUpLegRoll
    {
      OFFSET 0 18.3379 0
      CHANNELS 3 Zrotation Xrotation Yrotation
      JOINT LeftLeg
      {
        OFFSET 0 22.7084 0
        CHANNELS 3 Zrotation Xrotation Yrotation
        JOINT LeftLegRoll
        {
          OFFSET 0 22.9934 0
          CHANNELS 3 Zrotation Xrotation Yrotation
          JOINT LeftFoot
          {
            OFFSET 0 18.7522 0
            CHANNELS 3 Zrotation Xrotation Yrotation
            JOINT LeftToeBase
            {
              OFFSET 0 15.852 0
              CHANNELS 3 Zrotation Xrotation Yrotation
              End Site
              {
                OFFSET -0.030112 7.67701 -0.884893
              }
            }
          }
        }
      }
    }
  }
}
MOTION
Frames: 9
Frame Time: 0.00208333
55.4797 94.3097 9.27938 -0.302504 -5.31602 -0.479511 0.0119984 -0.4808 0.432567 0.00928514 3.04132 0.855194 -0.000874473 4.68632 0.855804 -2.04799 21.9841 -2.2386 7.69924 -14.5874 -1.15587 81.3289 -4.46019 -4.20978 88.6248 10.1487 14.013 9.93923e-016 -2.38542e-015 -0 12.0515 20.5017 -3.37641 -5.97451e-006 2.11505e-006 -3 8.0289 -4.95155 0.697742 -63.4021 -1.69104 1.52164 -108.428 1.23716 -14.8826 -1.19479e-005 -2.34949e-006 4.38427e-006 -3.39507 15.9595 1.57903 -2.45817e-005 -6.34905e-007 3.00001 -8.02984 -4.95142 -0.69766 178.233 -0.648276 -0.2574 180 7.01545e-015 178.913 179.079 9.63177 179.492 -4.12324e-006 2.73712e-007 0.108435 -17.7544 68.3514 19.8123 8.12273 25.2334 -3.48187 -179.52 -0.967452 6.29543 4.54188e-006 -4.6773e-006 -1.32665 -4.80941 -10.9666 -0.238323 2.67413e-006 -6.3935e-006 -0.239915 24.0196 71.025 -22.6826 -8.13405 25.2354 3.47677 
55.4493 94.3133 9.32149 -0.310068 -5.32786 -0.486516 0.0119167 -0.472759 0.432506 0.00997313 3.0574 0.855759 -7.50726e-005 4.7024 0.856347 -2.04221 21.9276 -2.2383 7.69031 -14.5639 -1.15643 81.3263 -4.4603 -4.20966 88.6603 10.1521 13.8336 2.60408e-014 -7.95139e-015 3.18055e-015 12.1316 20.6604 -3.40666 -5.97451e-006 2.11505e-006 -3 8.0289 -4.95155 0.697742 -63.3835 -1.69964 1.52464 -108.441 1.20795 -14.6884 -1.19479e-005 -2.34949e-006 4.38427e-006 -3.53703 16.2084 1.62112 -2.45817e-005 -6.34905e-007 3.00001 -8.02984 -4.95142 -0.69766 178.245 -0.648324 -0.256452 180 7.01545e-015 178.913 179.073 9.66515 179.492 -4.12324e-006 2.73712e-007 0.108829 -17.7811 68.3718 19.8294 8.12273 25.2334 -3.48187 -179.506 -0.96944 6.27683 4.54188e-006 -4.6773e-006 -1.32694 -4.81981 -10.9941 -0.241368 2.67413e-006 -6.3935e-006 -0.240127 24.0317 71.0324 -22.6918 -8.13405 25.2354 3.47677 
55.453 94.3108 9.32139 -0.317713 -5.3401 -0.49361 0.0117954 -0.464658 0.432468 0.0105928 3.0736 0.856426 0.000662649 4.7186 0.856994 -2.03467 21.8707 -2.2383 7.68006 -14.5394 -1.15709 81.3254 -4.46027 -4.20959 88.6941 10.1556 13.6544 2.48481e-014 -7.15625e-015 -0 12.2126 20.8171 -3.43674 -5.97451e-006 2.11505e-006 -3 8.0289 -4.95155 0.697742 -63.3638 -1.70841 1.52762 -108.457 1.17981 -14.4968 -1.19479e-005 -2.34949e-006 4.38427e-006 -3.67803 16.452 1.66198 -2.45817e-005 -6.34905e-007 3.00001 -8.02984 -4.95142 -0.69766 178.256 -0.649313 -0.254834 180 7.01545e-015 178.913 179.066 9.69765 179.492 -4.12324e-006 2.73712e-007 0.10919 -17.8079 68.392 19.8463 8.12273 25.2334 -3.48187 -179.491 -0.972147 6.25824 4.54188e-006 -4.6773e-006 -1.32724 -4.83019 -11.0211 -0.24443 2.67413e-006 -6.3935e-006 -0.240338 24.044 71.0398 -22.7009 -8.13405 25.2354 3.47677 
55.4422 94.3085 9.33853 -0.325418 -5.35263 -0.500766 0.0116462 -0.456514 0.432445 0.0111645 3.08989 0.857166 0.00135699 4.73489 0.857713 -2.02591 21.8134 -2.23851 7.66889 -14.5141 -1.15781 81.3256 -4.46015 -4.20955 88.7267 10.1593 13.4753 8.15017e-015 -3.97569e-015 -0 12.2943 20.9724 -3.46673 -5.97451e-006 2.11505e-006 -3 8.0289 -4.95155 0.697742 -63.3433 -1.71729 1.53058 -108.472 1.15239 -14.3071 -1.19479e-005 -2.34949e-006 4.38427e-006 -3.81846 16.6918 1.70201 -2.45817e-005 -6.34905e-007 3.00001 -8.02984 -4.95142 -0.69766 178.267 -0.65096 -0.252746 180 7.01545e-015 178.913 179.059 9.72953 179.492 -4.12324e-006 2.73712e-007 0.109527 -17.8348 68.4118 19.863 8.12273 25.2334 -3.48187 -179.476 -0.975358 6.23967 4.54188e-006 -4.6773e-006 -1.32753 -4.84055 -11.0478 -0.247503 2.67413e-006 -6.3935e-006 -0.240548 24.0563 71.0472 -22.7102 -8.13405 25.2354 3.47677 
55.4358 94.3058 9.34867 -0.333157 -5.36533 -0.507958 0.0114812 -0.448346 0.432431 0.0117086 3.10622 0.857948 0.00202634 4.75122 0.858474 -2.01645 21.7561 -2.23885 7.65721 -14.4884 -1.15856 81.3264 -4.45997 -4.20952 88.7585 10.163 13.2963 7.55382e-015 -3.18055e-015 3.18055e-015 12.3765 21.1269 -3.49669 -5.97451e-006 2.11505e-006 -3 8.0289 -4.95155 0.697742 -63.3224 -1.72623 1.53355 -108.489 1.12537 -14.1184 -1.19479e-005 -2.34949e-006 4.38427e-006 -3.9587 16.9296 1.74163 -2.45817e-005 -6.34905e-007 3.00001 -8.02984 -4.95142 -0.69766 178.278 -0.652984 -0.25039 180 7.01545e-015 178.912 179.051 9.76105 179.493 -4.12324e-006 2.73712e-007 0.10985 -17.8618 68.4315 19.8796 8.12273 25.2334 -3.48187 -179.461 -0.978857 6.2211 4.54188e-006 -4.6773e-006 -1.32782 -4.8509 -11.0742 -0.250584 2.67413e-006 -6.3935e-006 -0.240757 24.0688 71.0546 -22.7194 -8.13405 25.2354 3.47677 
55.4368 94.302 9.34597 -0.340908 -5.37806 -0.515158 0.0113122 -0.440171 0.43242 0.0122454 3.12257 0.85874 0.00268911 4.76757 0.859245 -2.00682 21.6987 -2.23923 7.64538 -14.4625 -1.15933 81.3273 -4.45977 -4.20949 88.7903 10.1666 13.1172 -2.18663e-015 -2.38542e-015 3.18055e-015 12.4589 21.2812 -3.52671 -5.97451e-006 2.11505e-006 -3 8.0289 -4.95155 0.697742 -63.3014 -1.73519 1.53651 -108.505 1.0984 -13.93 -1.19479e-005 -2.34949e-006 4.38427e-006 -4.09914 17.1668 1.78124 -2.45817e-005 -6.34905e-007 3.00001 -8.02984 -4.95142 -0.69766 178.288 -0.655102 -0.247968 180 7.01544e-015 178.912 179.044 9.79247 179.493 -4.12324e-006 2.73712e-007 0.11017 -17.8888 68.4512 19.8962 8.12273 25.2334 -3.48187 -179.446 -0.982427 6.20254 4.54188e-006 -4.6773e-006 -1.32811 -4.86125 -11.1007 -0.253667 2.67413e-006 -6.3935e-006 -0.240966 24.0813 71.0621 -22.7287 -8.13405 25.2354 3.47677 
55.4273 94.3006 9.3607 -0.348645 -5.39072 -0.522342 0.0111511 -0.432009 0.432404 0.0127954 3.1389 0.859511 0.00336376 4.78389 0.859996 -1.99754 21.6413 -2.23954 7.63383 -14.4369 -1.16008 81.328 -4.45961 -4.20946 88.8223 10.17 12.9381 1.15295e-014 -3.18055e-015 -0 12.5413 21.4358 -3.55688 -5.97451e-006 2.11505e-006 -3 8.0289 -4.95155 0.697742 -63.2806 -1.74412 1.53947 -108.52 1.07115 -13.741 -1.19479e-005 -2.34949e-006 4.38427e-006 -4.2402 17.4051 1.82125 -2.45817e-005 -6.34905e-007 3.00001 -8.02984 -4.95142 -0.69766 178.299 -0.657032 -0.245679 180 7.01544e-015 178.912 179.036 9.82409 179.494 -4.12324e-006 2.73712e-007 0.110496 -17.9158 68.4709 19.9129 8.12273 25.2334 -3.48187 -179.431 -0.985854 6.18397 4.54188e-006 -4.6773e-006 -1.32841 -4.87161 -11.1272 -0.256748 2.67413e-006 -6.3935e-006 -0.241175 24.0937 71.0695 -22.7379 -8.13405 25.2354 3.47677 
55.421 94.2991 9.19306 -0.356347 -5.40317 -0.529482 0.0110099 -0.423877 0.432376 0.0133791 3.15516 0.860231 0.00406873 4.80016 0.860695 -1.98913 21.5842 -2.2397 7.62293 -14.4118 -1.16078 81.3278 -4.45951 -4.20941 88.8552 10.1732 12.759 4.57205e-015 -1.59028e-015 3.18055e-015 12.6235 21.5915 -3.58727 -5.97451e-006 2.11505e-006 -3 8.0289 -4.95155 0.697742 -63.2604 -1.75296 1.54244 -108.535 1.04327 -13.5508 -1.19479e-005 -2.34949e-006 4.38427e-006 -4.38231 17.6459 1.86209 -2.45817e-005 -6.34905e-007 3.00001 -8.02984 -4.95142 -0.69766 178.31 -0.658491 -0.243726 180 7.01544e-015 178.912 179.029 9.85614 179.494 -4.12324e-006 2.73712e-007 0.11084 -17.9428 68.4909 19.9298 8.12273 25.2334 -3.48187 -179.416 -0.988922 6.1654 4.54188e-006 -4.6773e-006 -1.3287 -4.88199 -11.154 -0.259821 2.67413e-006 -6.3935e-006 -0.241386 24.1061 71.0769 -22.7472 -8.13405 25.2354 3.47677 
55.4112 94.2972 9.23098 -0.363987 -5.41529 -0.536551 0.0109006 -0.415794 0.432331 0.0140168 3.17133 0.860868 0.00482257 4.81632 0.861311 -1.98212 21.5274 -2.23963 7.61308 -14.3876 -1.16141 81.3264 -4.45952 -4.20932 88.8895 10.176 12.5797 -8.54774e-015 1.59028e-015 3.18055e-015 12.7054 21.7487 -3.61797 -5.97451e-006 2.11505e-006 -3 8.0289 -4.95155 0.697742 -63.241 -1.76168 1.54543 -108.549 1.01443 -13.3585 -1.19479e-005 -2.34949e-006 4.38427e-006 -4.52589 17.891 1.90419 -2.45817e-005 -6.34905e-007 3.00001 -8.02984 -4.95142 -0.69766 178.322 -0.659198 -0.242308 180 7.01544e-015 178.911 179.022 9.8889 179.494 -4.12324e-006 2.73712e-007 0.11121 -17.9698 68.5111 19.9469 8.12273 25.2334 -3.48187 -179.401 -0.991414 6.14681 4.54188e-006 -4.6773e-006 -1.32899 -4.8924 -11.1811 -0.262882 2.67413e-006 -6.3935e-006 -0.241597 24.1184 71.0843 -22.7564 -8.13405 25.2354 3.47677 
